<svg xmlns="http://www.w3.org/2000/svg" width="20" height="20" fill="none"><path fill="#26BB8E" d="M2.182 15.347v-4.67q0-.427.208-.863.207-.437.616-.674V7.01q0-.79.55-1.34a1.83 1.83 0 0 1 1.342-.552h3.735q.43 0 .78.193.35.192.587.522.237-.33.583-.522.346-.193.775-.193h3.735q.79 0 1.346.55.555.55.555 1.34v2.128q.409.24.616.679.208.438.208.863v4.669h-.998V13.69H3.18v1.657zm8.322-6.49h5.493V7.01a.86.86 0 0 0-.261-.64.88.88 0 0 0-.64-.255h-3.77a.75.75 0 0 0-.588.267.93.93 0 0 0-.234.632zm-6.5 0h5.492V7.009q0-.36-.232-.627a.75.75 0 0 0-.59-.266H4.897a.86.86 0 0 0-.632.263.87.87 0 0 0-.262.636zm-.824 3.836h13.64v-2.017a.803.803 0 0 0-.819-.822h-12a.8.8 0 0 0-.587.236.8.8 0 0 0-.234.584z"/></svg>