<svg xmlns="http://www.w3.org/2000/svg" width="18" height="18" viewBox="0 0 18 18"><defs><clipPath id="clip-path"><path id="Rectangle_5428" d="M0 0h18v18H0z" data-name="Rectangle 5428" style="fill:#34bdad;stroke:#707070" transform="translate(868 245)"/></clipPath><style>.cls-3{fill:#34bdad}</style></defs><g id="Mask_Group_493" data-name="Mask Group 493" style="clip-path:url(#clip-path)" transform="translate(-868 -245)"><g id="discount_1_" data-name="discount (1)" transform="translate(868.364 245)"><g id="Group_3541" data-name="Group 3541"><g id="Group_3540" data-name="Group 3540"><path id="Path_4494" d="M16.722 9.233a.53.53 0 0 1 0-.466l.671-1.373a1.563 1.563 0 0 0-.674-2.075l-1.35-.719a.53.53 0 0 1-.274-.377l-.264-1.506a1.563 1.563 0 0 0-1.765-1.282l-1.514.214a.53.53 0 0 1-.443-.144L10.01.444a1.56 1.56 0 0 0-2.182 0l-1.1 1.063a.53.53 0 0 1-.443.144l-1.513-.214a1.56 1.56 0 0 0-1.765 1.282l-.264 1.506a.53.53 0 0 1-.274.377l-1.35.716a1.563 1.563 0 0 0-.674 2.076l.671 1.373a.53.53 0 0 1 0 .466l-.671 1.373a1.563 1.563 0 0 0 .674 2.075l1.35.716a.53.53 0 0 1 .274.377l.264 1.506a1.56 1.56 0 0 0 1.54 1.3 2 2 0 0 0 .225-.016l1.514-.214a.53.53 0 0 1 .443.144l1.1 1.063a1.563 1.563 0 0 0 2.182 0l1.1-1.063a.53.53 0 0 1 .443-.144l1.514.214a1.56 1.56 0 0 0 1.765-1.282l.264-1.506a.53.53 0 0 1 .274-.377l1.35-.716a1.563 1.563 0 0 0 .674-2.075zm-.489 2.531-1.35.716a1.56 1.56 0 0 0-.81 1.115l-.265 1.505a.53.53 0 0 1-.6.434l-1.508-.213a1.56 1.56 0 0 0-1.311.426l-1.1 1.063a.53.53 0 0 1-.738 0l-1.1-1.063a1.56 1.56 0 0 0-1.087-.442 2 2 0 0 0-.223.016l-1.514.214a.53.53 0 0 1-.6-.434L3.766 13.6a1.56 1.56 0 0 0-.81-1.115l-1.35-.716a.53.53 0 0 1-.228-.7l.671-1.373a1.56 1.56 0 0 0 0-1.378l-.672-1.38a.53.53 0 0 1 .228-.7l1.35-.716A1.56 1.56 0 0 0 3.766 4.4l.264-1.5a.53.53 0 0 1 .6-.434l1.514.214a1.56 1.56 0 0 0 1.311-.426L8.55 1.19a.53.53 0 0 1 .738 0l1.1 1.063a1.56 1.56 0 0 0 1.311.426l1.514-.214a.53.53 0 0 1 .6.434l.259 1.501a1.56 1.56 0 0 0 .81 1.115l1.35.716a.53.53 0 0 1 .228.7l-.671 1.373a1.56 1.56 0 0 0 0 1.378l.671 1.373a.53.53 0 0 1-.227.709" className="cls-3" data-name="Path 4494" transform="translate(-.283)"/></g></g><g id="Group_3543" data-name="Group 3543" transform="translate(4.691 5.055)"><g id="Group_3542" data-name="Group 3542"><path id="Path_4495" d="M11.669 4.084a.52.52 0 0 0-.734 0l-6.851 6.851a.519.519 0 1 0 .734.734l6.851-6.851a.52.52 0 0 0 0-.734" className="cls-3" data-name="Path 4495" transform="translate(-3.932 -3.932)"/></g></g><g id="Group_3545" data-name="Group 3545" transform="translate(4.656 4.328)"><g id="Group_3544" data-name="Group 3544"><path id="Path_4496" d="M5.808 3.366a1.9 1.9 0 1 0 1.9 1.9 1.905 1.905 0 0 0-1.9-1.9m0 2.768a.865.865 0 1 1 .865-.865.866.866 0 0 1-.865.866z" className="cls-3" data-name="Path 4496" transform="translate(-3.905 -3.366)"/></g></g><g id="Group_3547" data-name="Group 3547" transform="translate(8.809 9.865)"><g id="Group_3546" data-name="Group 3546"><path id="Path_4497" d="M9.038 7.673a1.9 1.9 0 1 0 1.9 1.9 1.905 1.905 0 0 0-1.9-1.9m0 2.768a.865.865 0 1 1 .862-.865.866.866 0 0 1-.862.865" className="cls-3" data-name="Path 4497" transform="translate(-7.135 -7.673)"/></g></g></g></g></svg>