<svg xmlns="http://www.w3.org/2000/svg" id="Layer_2" width="24.05" height="24" data-name="Layer 2" viewBox="0 0 24.05 24"><defs><style>.cls-1{fill:none}.cls-2{fill:#00aeef}</style></defs><g id="Layer_1" data-name="Layer 1"><path id="Rectangle_5679" d="M0 0h24v24H0z" class="cls-1" data-name="Rectangle 5679"/><path id="Rectangle_5680" d="M0 0h24v24H0z" class="cls-1" data-name="Rectangle 5680" transform="rotate(90 12 12)"/><path id="Rectangle_5681" d="M0 0h24v24H0z" class="cls-1" data-name="Rectangle 5681" transform="rotate(-90 12 12)"/><path id="Rectangle_5682" d="M0 0h24v24H0z" class="cls-1" data-name="Rectangle 5682" transform="translate(.05)"/><path id="Rectangle_5683" d="M0 0h24v24H0z" class="cls-1" data-name="Rectangle 5683" transform="rotate(90 12.025 12.025)"/><path id="Path_4703" d="M19.27 4.43v15.25a1.45 1.45 0 0 1-1.45 1.44H7.09a1.45 1.45 0 0 1-1.45-1.44v-1.63a.65.65 0 0 1 1.3 0v1.63a.15.15 0 0 0 .15.14h10.73a.14.14 0 0 0 .15-.14V4.43a.14.14 0 0 0-.15-.14H7.09a.15.15 0 0 0-.15.14v1.35a.65.65 0 1 1-1.3 0V4.43A1.44 1.44 0 0 1 7.09 3h10.73a1.44 1.44 0 0 1 1.45 1.43" class="cls-2" data-name="Path 4703"/><path id="Path_4704" d="M14.8 12.12a.66.66 0 0 1-.19.46l-4.36 4.36a.65.65 0 0 1-.92 0 .66.66 0 0 1 0-.92l3.25-3.25H5.16a.65.65 0 1 1 0-1.3h7.42L9.33 8.22a.651.651 0 0 1 .92-.92l4.36 4.36a.66.66 0 0 1 .19.46" class="cls-2" data-name="Path 4704"/></g></svg>